<?xml version="1.0" encoding="utf-8"?>
<!-- Generator: Adobe Illustrator 15.0.0, SVG Export Plug-In . SVG Version: 6.00 Build 0)  -->
<!DOCTYPE svg PUBLIC "-//W3C//DTD SVG 1.1//EN" "http://www.w3.org/Graphics/SVG/1.1/DTD/svg11.dtd">
<svg version="1.1" id="Layer_1" xmlns="http://www.w3.org/2000/svg" xmlns:xlink="http://www.w3.org/1999/xlink" x="0px" y="0px"
	 width="110.55px" height="110.55px" viewBox="0 0 110.55 110.55" enable-background="new 0 0 110.55 110.55" xml:space="preserve">
<rect fill="#DA1C5C" width="110.207" height="110.207"/>
<g>
	<path fill="#FFFFFF" d="M17.031,15.005c-0.03-0.076-0.045-0.137-0.045-0.197c0-0.213,0.197-0.411,0.41-0.411
		s0.365,0.183,0.426,0.365l3.241,9.173l3.027-9.233c0.061-0.168,0.167-0.305,0.38-0.305h0.03c0.198,0,0.319,0.137,0.381,0.305
		l3.027,9.233l3.255-9.219c0.076-0.197,0.198-0.319,0.381-0.319c0.197,0,0.396,0.198,0.396,0.396c0,0.061-0.03,0.137-0.061,0.213
		l-3.561,9.873c-0.075,0.198-0.197,0.351-0.41,0.351h-0.03c-0.213,0-0.351-0.152-0.411-0.351l-3.012-8.945l-3.013,8.945
		c-0.061,0.198-0.197,0.351-0.411,0.351h-0.03c-0.213,0-0.334-0.138-0.41-0.351L17.031,15.005z"/>
	<path fill="#FFFFFF" d="M34.428,24.711v-9.858c0-0.213,0.183-0.396,0.396-0.396h6.876c0.198,0,0.365,0.168,0.365,0.365
		c0,0.198-0.167,0.365-0.365,0.365h-6.48v4.184h5.796c0.198,0,0.365,0.167,0.365,0.365c0,0.197-0.167,0.365-0.365,0.365h-5.796
		v4.274h6.557c0.198,0,0.365,0.168,0.365,0.365c0,0.198-0.167,0.365-0.365,0.365h-6.952C34.61,25.106,34.428,24.924,34.428,24.711z"
		/>
	<path fill="#FFFFFF" d="M49.191,14.808c0-0.213,0.183-0.396,0.396-0.396h0.076c0.167,0,0.289,0.091,0.396,0.228l4.153,6.116
		l4.153-6.116c0.091-0.137,0.228-0.228,0.396-0.228h0.076c0.213,0,0.396,0.183,0.396,0.396v9.964c0,0.213-0.183,0.396-0.396,0.396
		s-0.396-0.183-0.396-0.396v-8.914l-3.91,5.689c-0.091,0.137-0.197,0.197-0.335,0.197c-0.137,0-0.243-0.061-0.334-0.197l-3.91-5.689
		v8.93c0,0.213-0.167,0.38-0.38,0.38c-0.214,0-0.381-0.167-0.381-0.38V14.808z"/>
	<path fill="#FFFFFF" d="M61.734,24.589l4.549-9.857c0.106-0.229,0.258-0.381,0.532-0.381h0.03c0.273,0,0.426,0.152,0.532,0.381
		l4.533,9.827c0.046,0.092,0.062,0.168,0.062,0.243c0,0.198-0.168,0.365-0.381,0.365c-0.183,0-0.319-0.137-0.396-0.304l-1.247-2.738
		h-6.283l-1.247,2.753c-0.076,0.183-0.198,0.289-0.381,0.289c-0.197,0-0.365-0.151-0.365-0.334
		C61.673,24.771,61.688,24.681,61.734,24.589z M69.614,21.41l-2.799-6.162l-2.814,6.162H69.614z"/>
	<path fill="#FFFFFF" d="M74.427,14.792c0-0.213,0.183-0.396,0.396-0.396s0.396,0.183,0.396,0.396v6.663l6.725-6.937
		c0.061-0.062,0.151-0.122,0.273-0.122c0.198,0,0.396,0.198,0.396,0.396c0,0.106-0.046,0.198-0.121,0.273l-4.062,4.093l4.336,5.31
		c0.076,0.091,0.122,0.167,0.122,0.289c0,0.213-0.198,0.41-0.411,0.41c-0.137,0-0.243-0.076-0.305-0.151l-4.305-5.295l-2.647,2.678
		v2.373c0,0.213-0.183,0.396-0.396,0.396s-0.396-0.183-0.396-0.396V14.792z"/>
	<path fill="#FFFFFF" d="M85.31,24.711v-9.858c0-0.213,0.183-0.396,0.396-0.396h6.876c0.198,0,0.365,0.168,0.365,0.365
		c0,0.198-0.167,0.365-0.365,0.365h-6.48v4.184h5.796c0.198,0,0.365,0.167,0.365,0.365c0,0.197-0.167,0.365-0.365,0.365h-5.796
		v4.274h6.557c0.198,0,0.365,0.168,0.365,0.365c0,0.198-0.167,0.365-0.365,0.365h-6.952C85.492,25.106,85.31,24.924,85.31,24.711z"
		/>
	<path fill="#FFFFFF" d="M18.965,39.721c0-0.389,0.333-0.723,0.723-0.723h5.755c6.116,0,10.342,4.198,10.342,9.675v0.056
		c0,5.477-4.226,9.73-10.342,9.73h-5.755c-0.39,0-0.723-0.334-0.723-0.723V39.721z M25.442,57.125c5.421,0,8.841-3.698,8.841-8.341
		v-0.056c0-4.615-3.42-8.396-8.841-8.396H20.41v16.793H25.442z"/>
	<path fill="#FFFFFF" d="M38.226,57.514l8.312-18.016c0.195-0.417,0.473-0.694,0.974-0.694h0.056c0.5,0,0.778,0.277,0.973,0.694
		l8.285,17.96c0.083,0.167,0.111,0.306,0.111,0.445c0,0.361-0.307,0.667-0.695,0.667c-0.334,0-0.584-0.25-0.723-0.557l-2.28-5.004
		H41.757l-2.28,5.032c-0.139,0.334-0.361,0.528-0.695,0.528c-0.361,0-0.667-0.278-0.667-0.611
		C38.114,57.848,38.143,57.681,38.226,57.514z M52.627,51.703l-5.115-11.26l-5.144,11.26H52.627z"/>
	<path fill="#FFFFFF" d="M64.298,40.332H58.07c-0.361,0-0.668-0.306-0.668-0.667s0.307-0.667,0.668-0.667h13.9
		c0.361,0,0.667,0.306,0.667,0.667s-0.306,0.667-0.667,0.667h-6.228v17.516c0,0.389-0.334,0.723-0.723,0.723
		c-0.39,0-0.723-0.334-0.723-0.723V40.332z"/>
	<path fill="#FFFFFF" d="M73.19,57.514l8.312-18.016c0.195-0.417,0.473-0.694,0.974-0.694h0.056c0.5,0,0.778,0.277,0.973,0.694
		l8.285,17.96c0.083,0.167,0.111,0.306,0.111,0.445c0,0.361-0.307,0.667-0.695,0.667c-0.334,0-0.584-0.25-0.723-0.557l-2.28-5.004
		H76.722l-2.28,5.032c-0.139,0.334-0.361,0.528-0.695,0.528c-0.361,0-0.667-0.278-0.667-0.611
		C73.079,57.848,73.107,57.681,73.19,57.514z M87.592,51.703l-5.115-11.26l-5.144,11.26H87.592z"/>
	<path fill="#FFFFFF" d="M18.965,72.962c0-0.389,0.333-0.723,0.723-0.723c0.389,0,0.723,0.334,0.723,0.723v17.515h10.87
		c0.362,0,0.668,0.307,0.668,0.668s-0.306,0.667-0.668,0.667H19.688c-0.39,0-0.723-0.334-0.723-0.723V72.962z"/>
	<path fill="#FFFFFF" d="M34.195,82.137v-0.056c0-5.311,3.92-10.064,9.814-10.064c5.894,0,9.758,4.698,9.758,10.009v0.056
		c0,5.31-3.92,10.064-9.813,10.064C38.06,92.146,34.195,87.446,34.195,82.137z M52.267,82.137v-0.056
		c0-4.81-3.503-8.758-8.312-8.758s-8.257,3.893-8.257,8.702v0.056c0,4.81,3.503,8.758,8.312,8.758S52.267,86.946,52.267,82.137z"/>
	<path fill="#FFFFFF" d="M64.215,91.367L56.291,73.24c-0.056-0.111-0.056-0.167-0.056-0.306c0-0.334,0.306-0.695,0.723-0.695
		c0.362,0,0.612,0.25,0.751,0.584l7.423,17.432l7.451-17.46c0.139-0.306,0.389-0.556,0.723-0.556c0.39,0,0.695,0.334,0.695,0.667
		c0,0.111,0,0.167-0.056,0.278l-7.951,18.183c-0.167,0.389-0.417,0.639-0.862,0.639h-0.056
		C64.632,92.006,64.382,91.756,64.215,91.367z"/>
	<path fill="#FFFFFF" d="M78.416,91.089V73.073c0-0.39,0.333-0.723,0.723-0.723h12.566c0.361,0,0.667,0.306,0.667,0.667
		s-0.306,0.667-0.667,0.667H79.861v7.646h10.593c0.361,0,0.667,0.306,0.667,0.668c0,0.361-0.306,0.667-0.667,0.667H79.861v7.812
		h11.982c0.361,0,0.667,0.307,0.667,0.668s-0.306,0.667-0.667,0.667H79.139C78.749,91.812,78.416,91.478,78.416,91.089z"/>
</g>
</svg>
